<svg width="24" height="24" viewBox="0 0 24 24" fill="none" xmlns="http://www.w3.org/2000/svg">
<circle cx="12" cy="12" r="12" fill="#040403"/>
<path d="M12 10.5C11.6022 10.5 11.2206 10.658 10.9393 10.9393C10.658 11.2206 10.5 11.6022 10.5 12C10.5 12.3978 10.658 12.7794 10.9393 13.0607C11.2206 13.342 11.6022 13.5 12 13.5C12.3978 13.5 12.7794 13.342 13.0607 13.0607C13.342 12.7794 13.5 12.3978 13.5 12C13.5 11.6022 13.342 11.2206 13.0607 10.9393C12.7794 10.658 12.3978 10.5 12 10.5ZM12 9.5C12.663 9.5 13.2989 9.76339 13.7678 10.2322C14.2366 10.7011 14.5 11.337 14.5 12C14.5 12.663 14.2366 13.2989 13.7678 13.7678C13.2989 14.2366 12.663 14.5 12 14.5C11.337 14.5 10.7011 14.2366 10.2322 13.7678C9.76339 13.2989 9.5 12.663 9.5 12C9.5 11.337 9.76339 10.7011 10.2322 10.2322C10.7011 9.76339 11.337 9.5 12 9.5V9.5ZM15.25 9.375C15.25 9.54076 15.1842 9.69973 15.0669 9.81694C14.9497 9.93415 14.7908 10 14.625 10C14.4592 10 14.3003 9.93415 14.1831 9.81694C14.0658 9.69973 14 9.54076 14 9.375C14 9.20924 14.0658 9.05027 14.1831 8.93306C14.3003 8.81585 14.4592 8.75 14.625 8.75C14.7908 8.75 14.9497 8.81585 15.0669 8.93306C15.1842 9.05027 15.25 9.20924 15.25 9.375V9.375ZM12 8C10.763 8 10.561 8.0035 9.9855 8.029C9.5935 8.0475 9.3305 8.1 9.0865 8.195C8.8695 8.279 8.713 8.3795 8.5465 8.5465C8.39 8.6977 8.26968 8.88229 8.1945 9.0865C8.0995 9.3315 8.047 9.594 8.029 9.9855C8.003 10.5375 8 10.7305 8 12C8 13.237 8.0035 13.439 8.029 14.0145C8.0475 14.406 8.1 14.6695 8.1945 14.913C8.2795 15.1305 8.3795 15.287 8.5455 15.453C8.714 15.621 8.8705 15.7215 9.0855 15.8045C9.3325 15.9 9.5955 15.953 9.9855 15.971C10.5375 15.997 10.7305 16 12 16C13.237 16 13.439 15.9965 14.0145 15.971C14.4055 15.9525 14.669 15.9 14.913 15.8055C15.1295 15.721 15.287 15.6205 15.453 15.4545C15.6215 15.286 15.722 15.1295 15.805 14.9145C15.9 14.668 15.953 14.4045 15.971 14.0145C15.997 13.4625 16 13.2695 16 12C16 10.763 15.9965 10.561 15.971 9.9855C15.9525 9.5945 15.9 9.3305 15.805 9.0865C15.7296 8.8825 15.6095 8.69798 15.4535 8.5465C15.3024 8.38992 15.1178 8.26958 14.9135 8.1945C14.6685 8.0995 14.4055 8.047 14.0145 8.029C13.4625 8.003 13.2695 8 12 8ZM12 7C13.3585 7 13.528 7.005 14.061 7.03C14.5935 7.055 14.956 7.1385 15.275 7.2625C15.605 7.3895 15.883 7.5615 16.161 7.839C16.4152 8.08895 16.612 8.39129 16.7375 8.725C16.861 9.0435 16.945 9.4065 16.97 9.939C16.9935 10.472 17 10.6415 17 12C17 13.3585 16.995 13.528 16.97 14.061C16.945 14.5935 16.861 14.956 16.7375 15.275C16.6123 15.6089 16.4156 15.9113 16.161 16.161C15.911 16.4152 15.6087 16.6119 15.275 16.7375C14.9565 16.861 14.5935 16.945 14.061 16.97C13.528 16.9935 13.3585 17 12 17C10.6415 17 10.472 16.995 9.939 16.97C9.4065 16.945 9.044 16.861 8.725 16.7375C8.39116 16.6122 8.08876 16.4155 7.839 16.161C7.5847 15.9111 7.38797 15.6087 7.2625 15.275C7.1385 14.9565 7.055 14.5935 7.03 14.061C7.0065 13.528 7 13.3585 7 12C7 10.6415 7.005 10.472 7.03 9.939C7.055 9.406 7.1385 9.044 7.2625 8.725C7.38762 8.39109 7.5844 8.08866 7.839 7.839C8.08884 7.58462 8.39121 7.38786 8.725 7.2625C9.044 7.1385 9.406 7.055 9.939 7.03C10.472 7.0065 10.6415 7 12 7Z" fill="white"/>
</svg>
