<svg width="26" height="28" viewBox="0 0 26 28" fill="none" xmlns="http://www.w3.org/2000/svg">
<path d="M8.24968 7.30078H17.7501C17.7501 7.30078 24.4009 13 24.4009 19.6508C24.4009 26.3016 19.6507 25.35 19.6507 25.35H6.34908C4.45888 25.35 1.59888 23.4494 1.59888 19.6508C1.59888 13 8.24968 7.30078 8.24968 7.30078Z" fill="white"/>
<path d="M17.7501 1.59901H15.1241C14.856 1.30155 14.5283 1.06373 14.1624 0.90095C13.7965 0.738167 13.4004 0.654053 12.9999 0.654053C12.5994 0.654053 12.2034 0.738167 11.8375 0.90095C11.4715 1.06373 11.1439 1.30155 10.8757 1.59901H8.24972C8.09502 1.59968 7.94281 1.63806 7.80628 1.71083C7.66976 1.78359 7.55303 1.88854 7.46621 2.01659C7.37939 2.14464 7.32511 2.29192 7.30805 2.44568C7.29099 2.59945 7.31168 2.75505 7.36832 2.89901L8.24972 5.39761H17.7501L18.6315 2.89901C18.6882 2.75505 18.7089 2.59945 18.6918 2.44568C18.6747 2.29192 18.6204 2.14464 18.5336 2.01659C18.4468 1.88854 18.3301 1.78359 18.1936 1.71083C18.057 1.63806 17.9048 1.59968 17.7501 1.59901Z" fill="#1E96FC"/>
</svg>
